HIERARCHY
ROOT Hips
{
	OFFSET 0.000000 0.000000 0.000000
	CHANNELS 6 Xposition Yposition Zposition Xrotation Yrotation Zrotation
	JOINT Chest
	{
		OFFSET 0.000000 0.009282 11.569106
		CHANNELS 6 Xposition Yposition Zposition Xrotation Yrotation Zrotation
		JOINT Chest2
		{
			OFFSET 0.000000 -0.016863 9.269641
			CHANNELS 6 Xposition Yposition Zposition Xrotation Yrotation Zrotation
			JOINT Chest3
			{
				OFFSET 0.000000 0.000000 8.374491
				CHANNELS 6 Xposition Yposition Zposition Xrotation Yrotation Zrotation
				JOINT Chest4
				{
					OFFSET 0.000000 0.000000 8.374493
					CHANNELS 6 Xposition Yposition Zposition Xrotation Yrotation Zrotation
					JOINT Neck
					{
						OFFSET 0.000000 -0.000001 12.152554
						CHANNELS 6 Xposition Yposition Zposition Xrotation Yrotation Zrotation
						JOINT Head
						{
							OFFSET 0.000000 -0.040100 7.802319
							CHANNELS 6 Xposition Yposition Zposition Xrotation Yrotation Zrotation
							End Site
							{
								OFFSET 0.000000 -0.020946 14.853096
							}
						}
					}
					JOINT RightCollar
					{
						OFFSET -2.894404 0.000000 6.791374
						CHANNELS 6 Xposition Yposition Zposition Xrotation Yrotation Zrotation
						JOINT RightShoulder
						{
							OFFSET -13.574684 0.000000 0.000000
							CHANNELS 6 Xposition Yposition Zposition Xrotation Yrotation Zrotation
							JOINT RightElbow
							{
								OFFSET -23.923903 0.000000 0.000000
								CHANNELS 6 Xposition Yposition Zposition Xrotation Yrotation Zrotation
								JOINT RightWrist
								{
									OFFSET -19.846718 -0.012765 0.000000
									CHANNELS 6 Xposition Yposition Zposition Xrotation Yrotation Zrotation
									End Site
									{
										OFFSET -14.973145 0.000000 0.000000
									}
								}
							}
						}
					}
					JOINT LeftCollar
					{
						OFFSET 2.894404 0.000000 6.791374
						CHANNELS 6 Xposition Yposition Zposition Xrotation Yrotation Zrotation
						JOINT LeftShoulder
						{
							OFFSET 13.574684 0.000000 0.000000
							CHANNELS 6 Xposition Yposition Zposition Xrotation Yrotation Zrotation
							JOINT LeftElbow
							{
								OFFSET 23.923903 0.000000 0.000000
								CHANNELS 6 Xposition Yposition Zposition Xrotation Yrotation Zrotation
								JOINT LeftWrist
								{
									OFFSET 19.846718 -0.012765 0.000000
									CHANNELS 6 Xposition Yposition Zposition Xrotation Yrotation Zrotation
									End Site
									{
										OFFSET 14.973145 0.000000 0.000000
									}
								}
							}
						}
					}
				}
			}
		}
	}
	JOINT RightHip
	{
		OFFSET -9.469263 -0.004642 0.045487
		CHANNELS 6 Xposition Yposition Zposition Xrotation Yrotation Zrotation
		JOINT RightKnee
		{
			OFFSET 0.000000 -0.002666 -40.478676
			CHANNELS 6 Xposition Yposition Zposition Xrotation Yrotation Zrotation
			JOINT RightAnkle
			{
				OFFSET 0.000000 -0.049110 -35.224068
				CHANNELS 6 Xposition Yposition Zposition Xrotation Yrotation Zrotation
				JOINT RightToe
				{
					OFFSET 0.000000 -12.539530 -6.151390
					CHANNELS 6 Xposition Yposition Zposition Xrotation Yrotation Zrotation
					End Site
					{
						OFFSET 0.000000 -5.044995 -1.291870
					}
				}
			}
		}
	}
	JOINT LeftHip
	{
		OFFSET 9.469263 -0.004642 0.045487
		CHANNELS 6 Xposition Yposition Zposition Xrotation Yrotation Zrotation
		JOINT LeftKnee
		{
			OFFSET 0.000000 -0.002666 -40.478676
			CHANNELS 6 Xposition Yposition Zposition Xrotation Yrotation Zrotation
			JOINT LeftAnkle
			{
				OFFSET 0.000000 -0.049110 -35.224068
				CHANNELS 6 Xposition Yposition Zposition Xrotation Yrotation Zrotation
				JOINT LeftToe
				{
					OFFSET 0.000000 -12.539530 -6.151390
					CHANNELS 6 Xposition Yposition Zposition Xrotation Yrotation Zrotation
					End Site
					{
						OFFSET 0.000000 -5.044995 -1.291870
					}
				}
			}
		}
	}
}
MOTION
Frames: 5
Frame Time: 0.016667
-11.107772 -7.186920 83.050087 2.776392 7.523135 -109.607058 -0.000001 0.009281 11.569102 2.862391 -1.853145 1.956121 0.000001 -0.016862 9.269640 1.262857 -0.839636 0.840024 0.000001 0.000001 8.374488 1.262857 -0.839635 0.840027 0.000001 0.000001 8.374491 0.945973 -0.631467 0.628274 -0.000002 0.000000 12.152542 17.656302 1.063911 6.390424 0.000000 -0.040106 7.802312 -3.238502 -0.211526 12.019206 -2.894404 0.000002 6.791364 -3.826583 -7.942890 0.922965 -13.574686 0.000002 0.000007 36.911008 -69.784541 59.146843 -23.923891 0.000000 0.000001 -19.794949 -48.173447 23.246653 -19.846716 -0.012770 -0.000004 -44.248834 51.130564 28.954272 2.894403 0.000001 6.791367 1.481392 7.015474 -11.862093 13.574683 -0.000001 0.000001 -53.525669 51.317240 -18.669658 23.923893 -0.000011 0.000001 -45.463710 4.396943 -8.851678 19.846718 -0.012760 -0.000005 -34.544436 -46.555577 -12.921020 -9.469263 -0.004642 0.045482 10.609370 0.873397 -2.626498 0.000038 -0.002669 -40.478565 2.330628 -0.209382 -0.780298 -0.000024 -0.049121 -35.224285 -4.757823 -0.710428 0.476995 0.000001 -12.539531 -6.151384 0.018882 0.028737 -0.012890 9.469262 -0.004644 0.045482 11.035479 0.031853 -1.734425 -0.000004 -0.002667 -40.478661 0.451701 0.536956 0.099536 0.000012 -0.049118 -35.224220 -3.394453 0.157321 -0.258081 0.000001 -12.539531 -6.151391 0.015716 -0.044200 0.014204 
-11.143371 -7.172363 83.048691 2.745567 7.475021 -109.551528 0.000001 0.009284 11.569115 2.838399 -1.874081 1.974470 0.000001 -0.016861 9.269647 1.252093 -0.849499 0.848062 -0.000000 -0.000001 8.374487 1.252093 -0.849499 0.848062 0.000001 0.000001 8.374499 0.937876 -0.638866 0.634292 -0.000001 -0.000001 12.152562 17.554235 1.066510 6.450826 -0.000001 -0.040099 7.802310 -3.423974 -0.236095 12.130515 -2.894406 0.000001 6.791376 -3.920985 -7.934991 0.892892 -13.574680 -0.000001 0.000001 36.508495 -69.778019 58.825988 -23.923897 0.000001 0.000001 -19.037815 -49.551390 24.390730 -19.846716 -0.012753 0.000011 -44.459515 51.133255 28.915158 2.894403 0.000001 6.791379 1.358438 6.931976 -11.903539 13.574684 0.000001 0.000011 -54.037930 51.141035 -18.850895 23.923901 -0.000004 -0.000003 -45.599326 5.026798 -9.335194 19.846725 -0.012772 -0.000001 -34.816046 -46.696798 -13.098707 -9.469262 -0.004640 0.045489 10.634829 0.875102 -2.662766 0.000039 -0.002669 -40.478573 2.235145 -0.214207 -0.808811 -0.000024 -0.049121 -35.224289 -4.747525 -0.711556 0.487027 0.000001 -12.539532 -6.151383 0.018237 0.025947 -0.013221 9.469265 -0.004640 0.045492 11.013268 0.032338 -1.764468 -0.000006 -0.002667 -40.478664 0.429459 0.534466 0.082071 0.000011 -0.049117 -35.224224 -3.400522 0.171650 -0.261918 -0.000000 -12.539532 -6.151381 0.016630 -0.045196 0.013601 
-11.180681 -7.157082 83.047134 2.716376 7.428556 -109.494442 0.000000 0.009281 11.569101 2.808688 -1.893134 1.992521 -0.000001 -0.016863 9.269639 1.238316 -0.858095 0.856187 -0.000000 0.000001 8.374483 1.238316 -0.858095 0.856184 0.000000 0.000001 8.374496 0.927519 -0.645312 0.640390 0.000001 -0.000000 12.152552 17.459208 1.066321 6.512890 0.000002 -0.040095 7.802312 -3.595980 -0.265806 12.243862 -2.894403 0.000000 6.791377 -3.977994 -7.922123 0.874993 -13.574684 0.000000 0.000009 36.051398 -69.768975 58.431319 -23.923899 0.000003 0.000000 -18.144881 -50.946446 25.671961 -19.846724 -0.012754 0.000004 -44.683111 51.078084 28.866353 2.894405 0.000001 6.791381 1.263043 6.847795 -11.930842 13.574680 0.000001 -0.000003 -54.597681 50.999735 -18.987791 23.923906 -0.000003 0.000005 -45.737621 5.713562 -9.838975 19.846722 -0.012764 0.000001 -34.978792 -46.844955 -13.229451 -9.469263 -0.004642 0.045474 10.665101 0.871620 -2.706795 0.000040 -0.002667 -40.478569 2.137409 -0.212610 -0.837779 -0.000024 -0.049121 -35.224285 -4.737335 -0.714323 0.496492 0.000001 -12.539532 -6.151382 0.017575 0.022632 -0.012776 9.469265 -0.004643 0.045483 10.992841 0.031324 -1.786229 -0.000003 -0.002667 -40.478649 0.409981 0.533040 0.055234 0.000012 -0.049116 -35.224220 -3.409965 0.183198 -0.267282 -0.000001 -12.539533 -6.151385 0.018363 -0.044374 0.013097 
-11.221321 -7.139691 83.045227 2.688445 7.385397 -109.433878 0.000000 0.009282 11.569104 2.789465 -1.906201 2.013537 0.000001 -0.016863 9.269634 1.228817 -0.863910 0.866230 0.000000 0.000000 8.374490 1.228817 -0.863910 0.866230 -0.000000 -0.000001 8.374501 0.920373 -0.649679 0.647924 0.000000 -0.000000 12.152543 17.378947 1.068701 6.570561 -0.000001 -0.040096 7.802319 -3.741094 -0.288162 12.350017 -2.894405 -0.000001 6.791366 -4.034771 -7.910107 0.857773 -13.574685 0.000003 0.000008 35.542757 -69.808181 57.967891 -23.923899 -0.000000 0.000000 -17.081729 -52.320847 27.100497 -19.846722 -0.012761 0.000004 -44.908248 51.029300 28.835986 2.894404 -0.000001 6.791365 1.164500 6.753078 -11.935546 13.574684 -0.000001 0.000003 -55.093464 50.891442 -19.167481 23.923906 0.000002 -0.000001 -45.840801 6.447430 -10.369100 19.846724 -0.012766 0.000004 -35.232718 -47.013254 -13.399258 -9.469263 -0.004643 0.045488 10.704396 0.867793 -2.762875 0.000041 -0.002669 -40.478577 2.035271 -0.211766 -0.855333 -0.000024 -0.049123 -35.224281 -4.728872 -0.717399 0.506402 0.000002 -12.539531 -6.151381 0.017884 0.020556 -0.011258 9.469263 -0.004643 0.045488 10.977893 0.031589 -1.801836 -0.000002 -0.002665 -40.478649 0.392357 0.527580 0.024526 0.000015 -0.049116 -35.224228 -3.423371 0.193641 -0.273448 0.000000 -12.539536 -6.151378 0.020141 -0.040927 0.012223 
-11.264568 -7.120917 83.043327 2.663523 7.345749 -109.375350 0.000000 0.009284 11.569114 2.773927 -1.918746 2.028169 0.000000 -0.016863 9.269643 1.221274 -0.869735 0.873634 -0.000001 0.000001 8.374487 1.221275 -0.869736 0.873638 0.000001 0.000000 8.374491 0.914696 -0.654052 0.653478 -0.000001 0.000001 12.152571 17.306516 1.078173 6.629267 -0.000001 -0.040098 7.802300 -3.872211 -0.297346 12.460446 -2.894405 0.000002 6.791384 -4.111132 -7.906677 0.861013 -13.574690 0.000001 0.000001 35.023424 -69.879488 57.465114 -23.923885 0.000001 -0.000000 -15.880004 -53.622941 28.641941 -19.846716 -0.012757 0.000009 -45.183682 50.968675 28.900808 2.894403 0.000002 6.791386 1.083614 6.647358 -11.912509 13.574684 -0.000002 -0.000004 -55.524056 50.800334 -19.371559 23.923901 0.000005 0.000000 -46.037466 7.240547 -10.940824 19.846716 -0.012766 0.000012 -35.450587 -47.112818 -13.516621 -9.469264 -0.004641 0.045501 10.748097 0.863456 -2.822742 0.000042 -0.002669 -40.478580 1.937136 -0.213346 -0.858227 -0.000025 -0.049124 -35.224285 -4.723040 -0.717002 0.513004 0.000000 -12.539531 -6.151383 0.017051 0.017957 -0.010237 9.469264 -0.004641 0.045492 10.967604 0.028732 -1.816562 -0.000001 -0.002666 -40.478653 0.378850 0.525275 -0.001126 0.000012 -0.049116 -35.224228 -3.441596 0.204016 -0.285639 -0.000002 -12.539532 -6.151381 0.021859 -0.038857 0.011407 
